<svg width="30" height="30" viewBox="0 0 30 30" fill="none" xmlns="http://www.w3.org/2000/svg">
<g opacity="0.8">
<g opacity="0.8">
<path d="M8 14.7981C8 13.7572 8.84879 12.9135 9.89583 12.9135C10.9429 12.9135 11.7917 13.7572 11.7917 14.7981C11.7917 15.8389 10.9429 16.6827 9.89583 16.6827C8.84879 16.6827 8 15.8389 8 14.7981Z" fill="black"/>
<path d="M17.2083 15C17.2083 13.9592 18.0571 13.1154 19.1042 13.1154C20.1512 13.1154 21 13.9592 21 15C21 16.0408 20.1512 16.8846 19.1042 16.8846C18.0571 16.8846 17.2083 16.0408 17.2083 15Z" fill="black"/>
<path d="M17.2083 8.88462C17.2083 7.84377 18.0571 7 19.1042 7C20.1512 7 21 7.84377 21 8.88462C21 9.92546 20.1512 10.7692 19.1042 10.7692C18.0571 10.7692 17.2083 9.92546 17.2083 8.88462Z" fill="black"/>
<path d="M17.2083 21.1154C17.2083 20.0745 18.0571 19.2308 19.1042 19.2308C20.1512 19.2308 21 20.0745 21 21.1154C21 22.1562 20.1512 23 19.1042 23C18.0571 23 17.2083 22.1562 17.2083 21.1154Z" fill="black"/>
<path fill-rule="evenodd" clip-rule="evenodd" d="M19.1042 9.15385L9.89583 15.2692L9.36736 14.3291L18.5757 8.21375L19.1042 9.15385Z" fill="black"/>
<path fill-rule="evenodd" clip-rule="evenodd" d="M19.1042 15.4038L9.89583 15.4038L9.89583 14.3269L19.1042 14.3269L19.1042 15.4038Z" fill="black"/>
<path fill-rule="evenodd" clip-rule="evenodd" d="M19.1042 21.6538L9.89583 15.5385L10.4243 14.5984L19.6326 20.7138L19.1042 21.6538Z" fill="black"/>
</g>
<rect opacity="0.4" x="0.5" y="0.5" width="29" height="29" rx="14.5" stroke="#222222"/>
</g>
</svg>
